<?xml version="1.0" encoding="UTF-8"?>
<svg width="40px" height="40px" viewBox="0 0 40 40" version="1.1" xmlns="http://www.w3.org/2000/svg" xmlns:xlink="http://www.w3.org/1999/xlink">
    <title>icon-set/cancel</title>
    <g id="icon-set-Web最新整理" stroke="none" stroke-width="1" fill="none" fill-rule="evenodd">
        <g id="images" transform="translate(-59.000000, -182.000000)" fill="#FFFFFF" fill-rule="nonzero">
            <g id="icon-set/cancel" transform="translate(59.000000, 182.000000)">
                <path d="M22.3421831,20.0098825 L39.4898147,2.86225089 C40.153468,2.22787636 40.1729873,1.16407906 39.5288531,0.510185312 C38.8944786,-0.153468046 37.8306813,-0.172987262 37.1767875,0.471146879 C37.1670279,0.480906488 37.1475087,0.500425704 37.1377491,0.510185312 L19.9901175,17.6578169 L2.84248589,0.510185312 C2.17883253,-0.124189221 1.12479485,-0.114429613 0.490420312,0.549223745 C-0.134194613,1.19335789 -0.134194613,2.21811675 0.490420312,2.86225089 L17.6380519,20.0098825 L0.490420312,37.1575141 C-0.163473437,37.8114079 -0.163473437,38.8654455 0.490420312,39.5095797 C1.14431406,40.1634734 2.19835175,40.1634734 2.84248589,39.5095797 L19.9901175,22.3619481 L37.1377491,39.5095797 C37.8014025,40.1439542 38.8554402,40.1341946 39.4898147,39.4705413 C40.1144296,38.8264071 40.1144296,37.8016483 39.4898147,37.1575141 L22.3421831,20.0098825 Z" id="Path"></path>
            </g>
        </g>
    </g>
</svg>