<?xml version="1.0" encoding="UTF-8"?>
<svg width="60px" height="60px" viewBox="0 0 60 60" version="1.1" xmlns="http://www.w3.org/2000/svg" xmlns:xlink="http://www.w3.org/1999/xlink">
    <title>icon-set/icon-home-w</title>
    <g stroke="none" stroke-width="1" fill="none" fill-rule="evenodd">
        <g id="images" transform="translate(-279.000000, -613.000000)" fill="#FFFFFF" fill-rule="nonzero">
            <g id="icon-set/icon-home-w" transform="translate(279.000000, 613.000000)">
                <path d="M58.992225,26.6568513 C59.9387451,27.564402 60.2514003,28.9624073 59.7895662,30.2187504 C59.3270286,31.4748468 58.2007434,32.2866 56.9203572,32.2866 L52.6199421,32.2866 L52.6199421,58.1435958 C52.6199421,59.1688902 51.8298666,60 50.8554561,60 L36.1006629,60 C35.1262521,60 34.3361766,59.1687669 34.3361766,58.1435958 L34.3361766,42.4439922 L25.664097,42.4439922 L25.664097,58.1434725 C25.664097,59.1687669 24.8740215,60 23.8996108,60 L9.14411442,60 C8.16970371,60 7.37962827,59.1686436 7.37962827,58.1434725 L7.37962827,32.2866 L3.08003364,32.2866 C1.7995302,32.2866 0.673362177,31.4749701 0.210824699,30.2187504 C-0.251595593,28.9625306 0.0610595868,27.564402 1.00757978,26.6569746 L27.927683,0.84954192 C29.1088117,-0.283139543 30.8906415,-0.283262835 32.0722392,0.849665211 L58.992225,26.6568513 Z M49.9473705,6 C50.7654396,6 51.4285713,6.76576167 51.4285713,7.71032604 L51.4285713,18 L39.9999999,6 L49.9473705,6 Z" id="Combined-Shape"></path>
            </g>
        </g>
    </g>
</svg>