<?xml version="1.0" encoding="UTF-8"?>
<svg width="22px" height="34px" viewBox="0 0 22 34" version="1.1" xmlns="http://www.w3.org/2000/svg" xmlns:xlink="http://www.w3.org/1999/xlink">
    <title>icon-set/icon-download</title>
    <g stroke="none" stroke-width="1" fill="none" fill-rule="evenodd">
        <g id="images" transform="translate(-554.000000, -721.000000)">
            <g id="icon-set/icon-download" transform="translate(554.000000, 721.000000)">
                <line x1="10.8700331" y1="12.63" x2="10.8700331" y2="1.1" id="Path" stroke="#FFFFFF" stroke-width="2.2" stroke-linecap="square" stroke-linejoin="round"></line>
                <line x1="7.11003311" y1="10.81" x2="10.8700331" y2="13.63" id="Path" stroke="#FFFFFF" stroke-width="2.2" stroke-linecap="round" stroke-linejoin="round"></line>
                <line x1="14.6200331" y1="10.81" x2="10.8700331" y2="13.63" id="Path" stroke="#FFFFFF" stroke-width="2.2" stroke-linecap="round" stroke-linejoin="round"></line>
                <path d="M21.4500331,2.25 C21.2660994,1.81728567 21.001376,1.42359439 20.6700331,1.09 C20.337229,0.757694973 19.9433403,0.492838778 19.5100331,0.31 C19.0633278,0.109285146 18.5797456,0.00371437583 18.0900331,0 L14.6800331,0 L14.6800331,2.44 L18.1300331,2.44 C18.447186,2.43125573 18.7529214,2.5586455 18.9700331,2.79 C19.1972321,3.00996732 19.3238237,3.31378704 19.3200331,3.63 L19.3200331,26.63 L2.41003311,26.63 L2.41003311,3.63 C2.41546869,2.97504585 2.94507896,2.44543558 3.60003311,2.44 L7.05003311,2.44 L7.05003311,0 L3.64003311,0 C3.1536631,0.00480657987 2.6735673,0.110359559 2.23003311,0.31 C1.7970903,0.488058714 1.40558171,0.753603674 1.08003311,1.09 C0.748891817,1.42585448 0.481247835,1.81885071 0.290033105,2.25 C0.0972685427,2.69500469 -0.0014623531,3.17504112 1.6367793e-05,3.66 L1.6367793e-05,30.19 C-0.00140701839,30.6781828 0.0972932297,31.1614737 0.290033105,31.61 C0.67132686,32.4741706 1.36390357,33.1631773 2.23003311,33.54 C2.6750378,33.7327646 3.15507422,33.8314955 3.64003311,33.8300496 L18.0900331,33.8300496 C18.5783295,33.8325878 19.0618523,33.7338402 19.5100331,33.54 C19.9373724,33.346294 20.3294164,33.0826782 20.6700331,32.76 C21.0010841,32.4299929 21.2658551,32.0396253 21.4500331,31.61 C21.6396153,31.160833 21.7349179,30.6775126 21.7302159,30.19 L21.7302159,3.66 C21.734975,3.17571611 21.6396427,2.69564954 21.4500331,2.25 Z M11.9300331,31.25 C11.6515779,31.5352162 11.2686157,31.6941816 10.8700331,31.69 C10.46844,31.6945885 10.0822259,31.5357714 9.80003311,31.25 C9.51618657,30.9665198 9.35771837,30.581154 9.36003311,30.18 C9.35734878,29.7787062 9.51557547,29.3930702 9.79933938,29.1093063 C10.0831033,28.8255424 10.4687393,28.6673157 10.8700331,28.67 C11.4803627,28.672202 12.0293532,29.0416041 12.2612973,29.6061473 C12.4932414,30.1706905 12.3625251,30.8193519 11.9300331,31.25 L11.9300331,31.25 Z" id="Shape" fill="#FFFFFF" fill-rule="nonzero"></path>
            </g>
        </g>
    </g>
</svg>