<?xml version="1.0" encoding="UTF-8"?>
<svg width="40px" height="40px" viewBox="0 0 40 40" version="1.1" xmlns="http://www.w3.org/2000/svg" xmlns:xlink="http://www.w3.org/1999/xlink">
    <title>icon-set/icon-time</title>
    <g id="icon-set-Web最新整理" stroke="none" stroke-width="1" fill="none" fill-rule="evenodd">
        <g id="images" transform="translate(-59.000000, -1000.000000)" fill="#888" fill-rule="nonzero">
            <g id="icon-set/icon-time" transform="translate(59.000000, 1000.000000)">
                <path d="M27.12625,23.5321094 L21.5491406,19.3492969 L21.5491406,10.8288281 C21.5491406,9.97210938 20.8566406,9.27960937 19.9999219,9.27960937 C19.1432031,9.27960937 18.4507031,9.97210938 18.4507031,10.8288281 L18.4507031,20.1239844 C18.4507031,20.6119531 18.68,21.0721094 19.0703906,21.3633594 L25.2671094,26.0109375 C25.5459375,26.2200781 25.8713281,26.3207812 26.1950781,26.3207812 C26.6675781,26.3207812 27.1323438,26.1085156 27.4360156,25.6995312 C27.9504687,25.01625 27.8110156,24.0449219 27.12625,23.5321094 Z" id="Path"></path>
                <path d="M20,0 C8.97132812,0 0,8.97132812 0,20 C0,31.0286719 8.97132812,40 20,40 C31.0286719,40 40,31.0286719 40,20 C40,8.97132812 31.0286719,0 20,0 Z M20,36.9016406 C10.6816406,36.9016406 3.09835937,29.3183594 3.09835937,20 C3.09835937,10.6816406 10.6816406,3.09835938 20,3.09835938 C29.3199219,3.09835938 36.9016406,10.6816406 36.9016406,20 C36.9016406,29.3183594 29.3183594,36.9016406 20,36.9016406 Z" id="Shape"></path>
            </g>
        </g>
    </g>
</svg>