<?xml version="1.0" encoding="UTF-8"?>
<svg width="355px" height="10px" viewBox="0 0 355 10" version="1.1" xmlns="http://www.w3.org/2000/svg" xmlns:xlink="http://www.w3.org/1999/xlink">
    <!-- Generator: Sketch 55 (78076) - https://sketchapp.com -->
    <title>Combined Shape</title>
    <desc>Created with Sketch.</desc>
    <g id="Page-1" stroke="none" stroke-width="1" fill="none" fill-rule="evenodd">
        <g id="10.紅版-優惠" transform="translate(-10.000000, -211.000000)" fill="#FFFFFF">
            <g id="games" transform="translate(10.000000, 102.000000)">
                <path d="M-1.98729921e-14,114.22473 L4.15242205,109.908691 L8.45238095,114.076642 L4.29995891,118.39268 L-1.98729921e-14,114.22473 Z M8.45238095,114.22473 L12.604803,109.908691 L16.9047619,114.076642 L12.7523399,118.39268 L8.45238095,114.22473 Z M16.9047619,114.22473 L21.057184,109.908691 L25.3571429,114.076642 L21.2047208,118.39268 L16.9047619,114.22473 Z M25.3571429,114.22473 L29.5095649,109.908691 L33.8095238,114.076642 L29.6571018,118.39268 L25.3571429,114.22473 Z M33.8095238,114.22473 L37.9619459,109.908691 L42.2619048,114.076642 L38.1094827,118.39268 L33.8095238,114.22473 Z M42.2619048,114.22473 L46.4143268,109.908691 L50.7142857,114.076642 L46.5618637,118.39268 L42.2619048,114.22473 Z M50.7142857,114.22473 L54.8667078,109.908691 L59.1666667,114.076642 L55.0142446,118.39268 L50.7142857,114.22473 Z M59.1666667,114.22473 L63.3190887,109.908691 L67.6190476,114.076642 L63.4666256,118.39268 L59.1666667,114.22473 Z M67.6190476,114.22473 L71.7714697,109.908691 L76.0714286,114.076642 L71.9190065,118.39268 L67.6190476,114.22473 Z M76.0714286,114.22473 L80.2238506,109.908691 L84.5238095,114.076642 L80.3713875,118.39268 L76.0714286,114.22473 Z M84.5238095,114.22473 L88.6762316,109.908691 L92.9761905,114.076642 L88.8237684,118.39268 L84.5238095,114.22473 Z M92.9761905,114.22473 L97.1286125,109.908691 L101.428571,114.076642 L97.2761494,118.39268 L92.9761905,114.22473 Z M101.428571,114.22473 L105.580993,109.908691 L109.880952,114.076642 L105.72853,118.39268 L101.428571,114.22473 Z M109.880952,114.22473 L114.033374,109.908691 L118.333333,114.076642 L114.180911,118.39268 L109.880952,114.22473 Z M118.333333,114.22473 L122.485755,109.908691 L126.785714,114.076642 L122.633292,118.39268 L118.333333,114.22473 Z M126.785714,114.22473 L130.938136,109.908691 L135.238095,114.076642 L131.085673,118.39268 L126.785714,114.22473 Z M135.238095,114.22473 L139.390517,109.908691 L143.690476,114.076642 L139.538054,118.39268 L135.238095,114.22473 Z M143.690476,114.22473 L147.842898,109.908691 L152.142857,114.076642 L147.990435,118.39268 L143.690476,114.22473 Z M152.142857,114.22473 L156.295279,109.908691 L160.595238,114.076642 L156.442816,118.39268 L152.142857,114.22473 Z M160.595238,114.22473 L164.74766,109.908691 L169.047619,114.076642 L164.895197,118.39268 L160.595238,114.22473 Z M169.047619,114.22473 L173.200041,109.908691 L177.5,114.076642 L173.347578,118.39268 L169.047619,114.22473 Z M177.5,114.22473 L181.652422,109.908691 L185.952381,114.076642 L181.799959,118.39268 L177.5,114.22473 Z M185.952381,114.22473 L190.104803,109.908691 L194.404762,114.076642 L190.25234,118.39268 L185.952381,114.22473 Z M194.404762,114.22473 L198.557184,109.908691 L202.857143,114.076642 L198.704721,118.39268 L194.404762,114.22473 Z M202.857143,114.22473 L207.009565,109.908691 L211.309524,114.076642 L207.157102,118.39268 L202.857143,114.22473 Z M211.309524,114.22473 L215.461946,109.908691 L219.761905,114.076642 L215.609483,118.39268 L211.309524,114.22473 Z M219.761905,114.22473 L223.914327,109.908691 L228.214286,114.076642 L224.061864,118.39268 L219.761905,114.22473 Z M228.214286,114.22473 L232.366708,109.908691 L236.666667,114.076642 L232.514245,118.39268 L228.214286,114.22473 Z M236.666667,114.22473 L240.819089,109.908691 L245.119048,114.076642 L240.966626,118.39268 L236.666667,114.22473 Z M245.119048,114.22473 L249.27147,109.908691 L253.571429,114.076642 L249.419007,118.39268 L245.119048,114.22473 Z M253.571429,114.22473 L257.723851,109.908691 L262.02381,114.076642 L257.871387,118.39268 L253.571429,114.22473 Z M262.02381,114.22473 L266.176232,109.908691 L270.47619,114.076642 L266.323768,118.39268 L262.02381,114.22473 Z M270.47619,114.22473 L274.628613,109.908691 L278.928571,114.076642 L274.776149,118.39268 L270.47619,114.22473 Z M278.928571,114.22473 L283.080993,109.908691 L287.380952,114.076642 L283.22853,118.39268 L278.928571,114.22473 Z M287.380952,114.22473 L291.533374,109.908691 L295.833333,114.076642 L291.680911,118.39268 L287.380952,114.22473 Z M295.833333,114.22473 L299.985755,109.908691 L304.285714,114.076642 L300.133292,118.39268 L295.833333,114.22473 Z M304.285714,114.22473 L308.438136,109.908691 L312.738095,114.076642 L308.585673,118.39268 L304.285714,114.22473 Z M312.738095,114.22473 L316.890517,109.908691 L321.190476,114.076642 L317.038054,118.39268 L312.738095,114.22473 Z M321.190476,114.22473 L325.342898,109.908691 L329.642857,114.076642 L325.490435,118.39268 L321.190476,114.22473 Z M329.642857,114.22473 L333.795279,109.908691 L338.095238,114.076642 L333.942816,118.39268 L329.642857,114.22473 Z M338.095238,114.22473 L342.24766,109.908691 L346.547619,114.076642 L342.395197,118.39268 L338.095238,114.22473 Z M346.547619,114.22473 L350.700041,109.908691 L355,114.076642 L350.847578,118.39268 L346.547619,114.22473 Z" id="Combined-Shape"></path>
            </g>
        </g>
    </g>
</svg>