<?xml version="1.0" encoding="UTF-8"?>
<svg width="22px" height="22px" viewBox="0 0 22 22" version="1.1" xmlns="http://www.w3.org/2000/svg" xmlns:xlink="http://www.w3.org/1999/xlink">
    <title>icon-set/icon-search-g</title>
    <g id="icon-set-Web最新整理" stroke="none" stroke-width="1" fill="none" fill-rule="evenodd">
        <g id="images" transform="translate(-184.000000, -339.000000)" fill="#666666">
            <g id="icon-set/icon-search-g" transform="translate(184.000000, 339.000000)">
                <path d="M13.3862085,13.3862085 C10.8930498,15.879966 6.83657765,15.879966 4.34282021,13.3862085 C1.84966151,10.8930498 1.84966151,6.83657765 4.34282021,4.34282021 C6.83657765,1.84966151 10.8930498,1.84966151 13.3862085,4.34282021 C15.8793672,6.83657765 15.8793672,10.8930498 13.3862085,13.3862085 M15.1357306,2.59329818 C11.6774009,-0.864432727 6.05162783,-0.864432727 2.59329818,2.59329818 C-0.864432727,6.05102909 -0.864432727,11.6779997 2.59329818,15.1357306 C5.6480762,18.1899098 10.3936996,18.5461609 13.8430481,16.2044838 L19.1490934,21.510529 C19.8011226,22.163157 20.8584997,22.163157 21.510529,21.510529 C22.163157,20.8584997 22.163157,19.8011226 21.510529,19.1484946 L16.2050825,13.8430481 C18.5455622,10.3931009 18.1899098,5.64747746 15.1357306,2.59329818" id="Fill-1"></path>
            </g>
        </g>
    </g>
</svg>